<?xml version="1.0" encoding="utf-8"?>
<!-- Generator: Adobe Illustrator 23.0.6, SVG Export Plug-In . SVG Version: 6.00 Build 0)  -->
<svg version="1.1" id="Calque_1" xmlns="http://www.w3.org/2000/svg" xmlns:xlink="http://www.w3.org/1999/xlink" x="0px" y="0px"
	 viewBox="0 0 184.3 186.1" style="enable-background:new 0 0 184.3 186.1;" xml:space="preserve">
<style type="text/css">
	.st0{fill:#E51F27;}
	.st1{fill:#FFFFFF;}
</style>
<g>
	<g>
		<g>
			<path class="st0" d="M184.2,153.6V34.2c0.3-18.4-0.8-30.3-17.7-33.9L0,0v154c0.2,20.4,3.3,31.6,20.6,32.2H162
				C180.8,185.2,183.7,180.4,184.2,153.6z"/>
		</g>
	</g>
</g>
<g>
	<path class="st1" d="M17.9,143.3l-5.7,0l0,2.9l5.9,0c5.5,0,10.1-2.4,13.9-7.2c3.8-4.8,5.6-11.1,5.7-18.9c0-7.6-2.1-13.9-6.2-18.9
		c-4.2-5-9.1-7.4-14.7-7.5l-8.9,0l-0.1,52.4l2.4,0l0.1-49.6l5.6,0c5.5,0,10.1,2.3,13.8,6.8c3.7,4.5,5.5,10.1,5.5,16.7
		c0,6.4-1.6,11.9-4.7,16.4C27.2,141,23,143.3,17.9,143.3z"/>
	<path class="st1" d="M63.9,136.1c-1.4,1.7-2.7,3-4.1,3.8c-1.4,0.8-2.9,1.2-4.7,1.2c-2.9,0-5.5-1.6-7.8-4.6c-2.2-3-3.3-6.8-3.3-11.3
		c0.1-4.5,1.3-8.2,3.6-11.2c2.3-3,5-4.5,7.9-4.4c3.3,0.1,6,1.7,8.1,4.8c2.1,3.2,3.1,6.9,3.1,11.2l-0.3,17.7l2.3,0l0.3-17.7
		c0.1-5.3-1.2-9.7-3.7-13.2c-2.6-3.6-5.8-5.4-9.6-5.4c-3.9-0.1-7.1,1.6-9.8,5.1c-2.6,3.5-4,7.8-4.1,13.2c-0.1,5.3,1.2,9.7,3.7,13.2
		c2.6,3.6,5.7,5.4,9.5,5.4c1.9,0,3.5-0.4,4.8-1.2c1.3-0.8,2.6-1.9,3.9-3.2L63.9,136.1z"/>
	<path class="st1" d="M109,140.5c1.8-2.2,2.8-5.3,2.8-9.3l0.4-23.5l-2.3,0l-0.4,23.5c-0.1,3.3-0.8,5.7-2.2,7.4
		c-1.4,1.7-3.2,2.5-5.2,2.5c-2,0-3.7-0.9-5.1-2.7c-1.4-1.8-2.1-4.2-2.1-7.5l0.4-23.5l-2.3,0l-0.4,23.5c-0.1,3.3-0.8,5.7-2.2,7.4
		c-1.4,1.7-3.2,2.5-5.2,2.5c-1.9,0-3.6-0.9-5-2.7c-1.4-1.8-2.1-4.2-2-7.5l0.4-23.5l-2.3,0L76,130.6c-0.1,4,0.8,7.1,2.5,9.4
		c1.7,2.3,4,3.5,6.7,3.5c2.2,0,4-0.5,5.4-1.7c1.4-1.2,2.4-2.9,3.1-5.1c0.6,2.3,1.5,4,2.9,5.2c1.4,1.2,3.2,1.8,5.4,1.9
		C104.9,143.8,107.2,142.7,109,140.5z"/>
	<path class="st1" d="M139.6,136.1c-1.4,1.7-2.7,3-4.1,3.8c-1.4,0.8-2.9,1.2-4.7,1.2c-2.9,0-5.5-1.6-7.8-4.6
		c-2.2-3-3.3-6.8-3.3-11.3c0.1-4.5,1.3-8.2,3.6-11.2c2.3-3,5-4.5,7.9-4.4c3.3,0.1,6,1.7,8.1,4.8c2.1,3.2,3.1,6.9,3.1,11.2l-0.3,17.7
		l2.3,0l0.3-17.7c0.1-5.3-1.2-9.7-3.7-13.2c-2.6-3.6-5.8-5.4-9.6-5.4c-3.9-0.1-7.1,1.6-9.8,5.1c-2.6,3.5-4,7.8-4.1,13.2
		c-0.1,5.3,1.2,9.7,3.7,13.2s5.7,5.4,9.5,5.4c1.9,0,3.5-0.4,4.8-1.2c1.3-0.8,2.6-1.9,3.9-3.2L139.6,136.1z"/>
	<path class="st1" d="M171.3,111.6c-2.1-2.7-4.8-4.1-7.9-4.2c-3.2-0.1-5.9,1.3-8,3.9c-2.2,2.7-3.3,6.1-3.3,10.5l-0.3,21.6l2.3,0
		l0.3-21.2c0.1-3.6,1-6.6,2.7-8.8c1.8-2.3,3.9-3.4,6.4-3.3c2.5,0,4.6,1.2,6.3,3.5c1.7,2.3,2.5,5.3,2.4,8.9l-0.3,21.2l2.3,0l0.3-21.6
		C174.4,117.8,173.4,114.3,171.3,111.6z"/>
	<path class="st1" d="M58.3,69.5c14.7,2.7,33.6-2.4,53-11.3c9-4.7,17.5-9,24.1-16.7c-7.5,8.2-15.2,11.2-20.5,14.1
		c-5.3,2.6-8.7,3.6-8.8,3.3c-0.2-0.4,5.5-3,13.9-8.3c4.1-2.7,9.4-5.8,13.5-11c0.9-1.3,1.8-3.1,1.1-4.7c-0.7-1.6-2.5-2.4-4-3
		c-3.3-1.3-7-1.4-10.7-1.2c-9.4,0.7-18.2,3.2-25.2,6.6l0,0c0.3,0.7,8.1-2.9,21.4-4.4c3.3-0.3,6.9-0.4,10.5,0.2
		c1.7,0.4,3.6,0.9,4.9,1.9c1.5,1.2,1.1,0.7,0.5,2.3c-1.9,3-6,5.9-9.9,8.5c-4.1,2.6-8.5,5-13.1,7.3c-9.3,4.3-18.6,7.9-27.1,10.1
		c-8.6,1.9-16.6,3.7-22.8,2.5c-3.1-0.6-5.8-1.8-6.2-3.5c-0.7-1.4,1.2-3.5,2.3-5c2.4-3.1,3.6-5,3.3-5.2c-0.3-0.3-2,1.1-4.9,3.7
		C53,56.2,52.2,57,51.3,58c-0.8,0.9-1.9,2.9-1.3,4.9C50.9,67.1,55,68.6,58.3,69.5z"/>
	<path class="st1" d="M79.6,89.2c5.1,0.7,10.1,0.7,14.6-0.2c-10.2,1.3-17-1.3-16.8-1.8c0-0.9,12.6,1.9,26.7-3.8
		c4.4-1.7,8.4-3.3,12-5.6c0,0-4.4,1.3-10.7,3.1c-6.8,1.7-15.1,4.2-24.9,2.6c-9.9-1.4-18.3-5.1-23.3-9.1c-5.1-4-7.1-7.9-7.9-7.5
		c-0.6,0.2,0.2,5.1,5.3,10.6C59.6,82.9,68.9,87.6,79.6,89.2z"/>
	<path class="st1" d="M81.7,48.6c-2-4.4-2.7-9.5-1.9-14.9c0.3-1.9,4.3-9.5,4.8-12.1c1.2-6.4-2.1-12.6-7.6-14.7
		c1.8,4.5,2.4,9.7,1.4,15c-0.4,2-4.4,9.8-4.8,12.4C72.7,40.7,76.2,46.7,81.7,48.6z"/>
	<path class="st1" d="M85.9,44.7c0.2,4.3-0.6,8.3-2.1,11.5c3.5-0.9,6.1-5.4,5.9-10.5c-0.1-2.1-1.9-8.5-1.9-10
		c-0.1-4.3,0.8-8.2,2.4-11.4c-3.5,0.7-6.2,5-6.2,10.2C84.1,36.5,85.9,43.1,85.9,44.7z"/>
	<path class="st1" d="M18.2,156.5c-1.7,0-3.4,0-4.9,0c0,0.4,0,0.8-0.1,1.3c1.1,0,2.4-0.1,3.8-0.1l-0.1,2.6l-0.2,5.6l-0.2,2.7
		c0.5,0,0.8,0,0.9,0l0.9,0l0-1.5l0.2-5.5l0.2-3.9l0.7,0c1.1,0,2.1,0,3.1,0.1c0-0.3,0-0.7,0.1-1.3l-1.5,0L18.2,156.5z"/>
	<path class="st1" d="M28.1,159.4c-0.3,0-0.6,0-0.8,0.1c-0.3,0.1-0.5,0.2-0.7,0.3c-0.2,0.1-0.4,0.3-0.6,0.5
		c-0.2,0.2-0.4,0.5-0.6,0.8l0.1-1.5c-0.3,0-0.5,0-0.8,0c-0.2,0-0.4,0-0.7,0l0,0.8c0,2-0.1,4.8-0.3,8.2c0.4,0,0.6,0,0.8,0
		c0.2,0,0.5,0,0.8,0l0-0.6c0-0.9,0-1.7,0-2.5c0-1.1,0.1-1.9,0.1-2.3c0.1-0.4,0.2-0.8,0.3-1c0.1-0.3,0.3-0.6,0.5-0.8
		c0.2-0.2,0.5-0.4,0.8-0.5c0.3-0.1,0.6-0.2,0.9-0.2c0.3,0,0.6,0.1,1,0.2c0-0.5-0.1-0.9-0.1-1.3C28.6,159.4,28.4,159.4,28.1,159.4z"
		/>
	<path class="st1" d="M37.1,159.8c-0.3-0.2-0.7-0.4-1.2-0.5c-0.5-0.1-1-0.1-1.5-0.1c-0.5,0-1,0-1.5,0.1c-0.5,0.1-1.1,0.2-1.9,0.4
		c-0.1,0.5-0.1,0.9-0.2,1.2c0.4-0.2,0.8-0.3,1.1-0.4c0.3-0.1,0.6-0.2,1.1-0.2c0.4-0.1,0.8-0.1,1.2-0.1c0.4,0,0.8,0,1.1,0.1
		c0.3,0.1,0.6,0.2,0.7,0.4c0.2,0.2,0.3,0.5,0.3,0.7c0,0.1,0,0.2-0.1,0.4c0,0.1-0.1,0.2-0.2,0.4c-0.1,0.1-0.2,0.2-0.3,0.3
		c-0.1,0.1-0.2,0.1-0.4,0.2c-0.1,0.1-0.3,0.1-0.5,0.2c-0.2,0.1-0.4,0.1-0.7,0.2c-0.8,0.2-1.4,0.4-1.8,0.5c-0.4,0.1-0.7,0.2-1,0.4
		c-0.3,0.1-0.5,0.3-0.8,0.5c-0.3,0.2-0.4,0.4-0.6,0.6c-0.1,0.2-0.2,0.4-0.3,0.6c-0.1,0.2-0.1,0.5-0.1,0.7c0,0.5,0.1,0.9,0.3,1.3
		c0.2,0.4,0.6,0.7,1,0.9c0.5,0.2,1.1,0.3,1.9,0.3c0.2,0,0.5,0,0.8,0c0.3,0,0.6-0.1,1.1-0.2c0.1-0.5,0.2-0.8,0.3-1.1
		c-0.5,0.1-0.8,0.2-1.1,0.3c-0.3,0-0.5,0.1-0.8,0.1c-0.4,0-0.7,0-1-0.1c-0.3-0.1-0.5-0.3-0.7-0.5c-0.2-0.2-0.3-0.5-0.3-0.8
		c0-0.2,0-0.4,0.1-0.6c0.1-0.2,0.2-0.3,0.3-0.5c0.2-0.2,0.4-0.3,0.6-0.4c0.2-0.1,0.6-0.3,1-0.4c0.2-0.1,0.5-0.2,1-0.3
		c0.5-0.1,0.8-0.2,0.9-0.3c0.2-0.1,0.3-0.1,0.4-0.2c0.1-0.1,0.2-0.1,0.4-0.2c0.1-0.1,0.3-0.2,0.5-0.3l-0.1,2.9l-0.2,2.4
		c0.4,0,0.6,0,0.8,0c0.2,0,0.5,0,0.8,0c0-0.6,0-1.4,0-2.2c0-0.8,0.1-1.7,0.1-2.7c0.1-1,0.1-1.7,0.1-2.1c0-0.3,0-0.6-0.2-0.9
		C37.6,160.3,37.4,160,37.1,159.8z"/>
	<path class="st1" d="M40.7,159.6l-0.1,2.9l-0.2,3.8l-0.2,2.2c0.4,0,0.7,0,0.9,0c0.2,0,0.4,0,0.8,0c0-0.7,0-1.6,0.1-2.8
		c0-1.2,0.1-2.3,0.1-3.3c0.1-1,0.1-2,0.2-2.9l-0.8,0L40.7,159.6z"/>
	<path class="st1" d="M40.7,156.4c0,0.3,0,0.7,0,1.3c0.3,0,0.6,0,0.9,0c0.2,0,0.5,0,0.8,0c0-0.7,0-1.1,0.1-1.3c-0.3,0-0.5,0-0.9,0
		C41.3,156.4,41,156.4,40.7,156.4z"/>
	<path class="st1" d="M52.7,160.2c-0.3-0.3-0.7-0.5-1.2-0.6c-0.5-0.1-1-0.2-1.5-0.2c-0.3,0-0.6,0-0.8,0.1c-0.3,0-0.6,0.1-0.8,0.2
		c-0.3,0.1-0.5,0.2-0.7,0.3c-0.2,0.1-0.4,0.3-0.5,0.4c-0.1,0.1-0.3,0.3-0.4,0.4c-0.1,0.1-0.2,0.3-0.4,0.6l0.1-1.8
		c-0.3,0-0.6,0-0.8,0l-0.8,0c0,2.3-0.2,5.3-0.4,9c0.4,0,0.6,0,0.8,0c0.2,0,0.4,0,0.8,0c0-2,0.1-3.5,0.2-4.4c0.1-0.8,0.2-1.4,0.4-1.8
		c0.2-0.6,0.6-1,1.1-1.3c0.5-0.3,1.1-0.5,1.8-0.5c0.5,0,0.9,0.1,1.3,0.3c0.4,0.2,0.7,0.4,0.9,0.7c0.2,0.3,0.3,0.7,0.3,1.3
		c0,0.4,0,0.9-0.1,1.6l-0.1,2.1c0,0.7-0.1,1.4-0.1,2.1c0.3,0,0.5,0,0.8,0c0.2,0,0.5,0,0.8,0c0-0.5,0-1,0-1.3l0.2-3.7
		c0-0.4,0-0.6,0-0.9c0-0.2,0-0.4,0-0.4c0-0.4-0.1-0.8-0.2-1.1C53.2,160.8,53,160.5,52.7,160.2z"/>
	<path class="st1" d="M56.3,159.6l-0.1,2.9l-0.2,3.8l-0.2,2.2c0.4,0,0.7,0,0.9,0c0.2,0,0.4,0,0.8,0c0-0.7,0-1.6,0.1-2.8
		c0-1.2,0.1-2.3,0.1-3.3c0.1-1,0.1-2,0.2-2.9l-0.8,0L56.3,159.6z"/>
	<path class="st1" d="M56.3,156.4c0,0.3,0,0.7,0,1.3c0.3,0,0.6,0,0.9,0c0.2,0,0.5,0,0.8,0c0-0.7,0-1.1,0.1-1.3c-0.3,0-0.5,0-0.9,0
		C56.9,156.4,56.6,156.4,56.3,156.4z"/>
	<path class="st1" d="M68.3,160.2c-0.3-0.3-0.7-0.5-1.2-0.6c-0.5-0.1-1-0.2-1.5-0.2c-0.3,0-0.6,0-0.8,0.1c-0.3,0-0.6,0.1-0.8,0.2
		c-0.3,0.1-0.5,0.2-0.7,0.3c-0.2,0.1-0.4,0.3-0.5,0.4c-0.1,0.1-0.3,0.3-0.4,0.4c-0.1,0.1-0.2,0.3-0.4,0.6l0.1-1.8
		c-0.3,0-0.6,0-0.8,0l-0.8,0c0,2.3-0.2,5.3-0.4,9c0.4,0,0.6,0,0.8,0c0.2,0,0.4,0,0.8,0c0-2,0.1-3.5,0.2-4.4c0.1-0.8,0.2-1.4,0.4-1.8
		c0.2-0.6,0.6-1,1.1-1.3c0.5-0.3,1.1-0.5,1.8-0.5c0.5,0,0.9,0.1,1.3,0.3c0.4,0.2,0.7,0.4,0.9,0.7c0.2,0.3,0.3,0.7,0.3,1.3
		c0,0.4,0,0.9-0.1,1.6l-0.1,2.1c0,0.7-0.1,1.4-0.1,2.1c0.3,0,0.5,0,0.8,0c0.2,0,0.5,0,0.8,0c0-0.5,0-1,0-1.3l0.2-3.7
		c0-0.4,0-0.6,0-0.9c0-0.2,0-0.4,0-0.4c0-0.4-0.1-0.8-0.2-1.1C68.8,160.8,68.6,160.5,68.3,160.2z"/>
	<path class="st1" d="M74.8,159.4c-0.7,0.2-1.3,0.5-1.9,1c-0.6,0.5-1,1.1-1.3,1.8c-0.3,0.7-0.4,1.5-0.4,2.3c0,0.6,0.1,1.1,0.3,1.7
		c0.2,0.5,0.5,1,0.8,1.3c0.4,0.3,0.8,0.6,1.3,0.7c0.5,0.1,1,0.2,1.5,0.2c0.4,0,0.7,0,1.1-0.1c0.3-0.1,0.6-0.2,0.9-0.3
		c0.3-0.1,0.5-0.3,0.7-0.5c0.2-0.2,0.4-0.3,0.5-0.5c0.1-0.2,0.2-0.4,0.4-0.6c0,1.3-0.1,2.1-0.1,2.5c-0.1,0.5-0.2,1-0.3,1.3
		c-0.1,0.3-0.3,0.5-0.5,0.6c-0.2,0.2-0.5,0.4-0.9,0.5c-0.4,0.1-0.9,0.2-1.4,0.2c-0.4,0-0.9,0-1.4-0.1c-0.5-0.1-1.2-0.2-2-0.5
		c0,0.4,0.1,0.7,0.1,0.8l0,0.5c0.7,0.2,1.3,0.3,1.9,0.3c0.6,0.1,1.1,0.1,1.7,0.1c0.4,0,0.8,0,1.2-0.1c0.4-0.1,0.7-0.1,1-0.3
		c0.2-0.1,0.5-0.2,0.7-0.3c0.2-0.1,0.4-0.3,0.5-0.5c0.2-0.2,0.3-0.4,0.4-0.6c0.1-0.2,0.2-0.5,0.3-0.7c0.1-0.3,0.1-0.6,0.2-1l0.1-1.8
		c0-1.1,0-1.7,0-1.8l0.3-5l0.1-1.1c-1.4-0.2-2.5-0.4-3.4-0.4C76.2,159.1,75.4,159.2,74.8,159.4z M78.7,163.6
		c-0.1,0.7-0.1,1.1-0.3,1.5c-0.1,0.5-0.4,0.9-0.7,1.2c-0.3,0.3-0.6,0.6-1,0.8c-0.4,0.2-0.8,0.3-1.3,0.3c-0.6,0-1.1-0.1-1.5-0.4
		c-0.4-0.2-0.8-0.6-1-1.1c-0.2-0.5-0.3-1-0.3-1.6c0-0.6,0.1-1.2,0.3-1.8c0.2-0.6,0.6-1,1-1.4c0.4-0.4,0.9-0.6,1.4-0.7
		c0.5-0.1,1-0.2,1.6-0.2c0.6,0,1.2,0.1,1.9,0.2C78.8,162,78.8,163.1,78.7,163.6z"/>
	<path class="st1" d="M87.9,159.6l-0.1,2.9l-0.2,3.8l-0.2,2.2c0.4,0,0.7,0,0.9,0c0.2,0,0.4,0,0.8,0c0-0.7,0-1.6,0.1-2.8
		c0-1.2,0.1-2.3,0.1-3.3c0.1-1,0.1-2,0.2-2.9l-0.8,0L87.9,159.6z"/>
	<path class="st1" d="M88,156.4c0,0.3,0,0.7,0,1.3c0.3,0,0.6,0,0.9,0c0.2,0,0.5,0,0.8,0c0-0.7,0-1.1,0.1-1.3c-0.3,0-0.5,0-0.9,0
		C88.6,156.4,88.3,156.4,88,156.4z"/>
	<path class="st1" d="M94.4,160.4c0.3-0.1,0.6-0.1,1-0.1c0.6,0,1.3,0.1,2,0.4c0-0.4-0.1-0.8-0.1-1.3c-0.8-0.2-1.6-0.2-2.3-0.2
		c-0.6,0-1.1,0.1-1.6,0.3c-0.5,0.2-0.8,0.4-1,0.8c-0.2,0.4-0.4,0.7-0.4,1.1c0,0.2,0,0.5,0.1,0.7c0.1,0.2,0.2,0.5,0.4,0.7
		c0.2,0.2,0.4,0.5,0.6,0.7c0.2,0.2,0.6,0.5,1.1,0.9s0.8,0.6,0.9,0.8c0.1,0.1,0.3,0.3,0.3,0.4c0.1,0.1,0.1,0.2,0.2,0.4
		c0,0.1,0.1,0.2,0.1,0.4c0,0.2-0.1,0.4-0.2,0.7c-0.1,0.2-0.3,0.4-0.6,0.5c-0.3,0.1-0.6,0.2-1,0.2c-0.8,0-1.6-0.2-2.5-0.6
		c0,0.4,0.1,0.6,0.1,0.7l0.1,0.7c0.4,0.1,0.7,0.2,0.9,0.2c0.2,0,0.5,0.1,0.9,0.1c0.3,0,0.6,0,0.9,0c0.6,0,1.2-0.1,1.6-0.3
		c0.5-0.2,0.9-0.5,1.1-0.8c0.2-0.4,0.4-0.7,0.4-1.2c0-0.2,0-0.4-0.1-0.6c-0.1-0.2-0.2-0.4-0.3-0.6c-0.1-0.2-0.3-0.4-0.5-0.6
		c-0.2-0.2-0.5-0.5-1.1-0.9c-0.5-0.4-0.9-0.7-1-0.8c-0.2-0.1-0.3-0.3-0.4-0.5c-0.1-0.2-0.2-0.3-0.3-0.4c0-0.1-0.1-0.3-0.1-0.4
		c0-0.2,0.1-0.4,0.2-0.6C93.8,160.7,94.1,160.5,94.4,160.4z"/>
	<path class="st1" d="M111.9,160.3c-0.4-0.4-0.9-0.7-1.5-0.8c-0.6-0.2-1.2-0.3-1.8-0.3c-0.9,0-1.7,0.2-2.4,0.6
		c-0.8,0.4-1.3,1-1.7,1.7c-0.4,0.8-0.6,1.6-0.6,2.6c0,0.6,0.1,1.3,0.3,1.8c0.2,0.6,0.5,1.1,0.9,1.5c0.4,0.4,0.9,0.7,1.5,0.9
		c0.6,0.2,1.2,0.3,1.8,0.3c0.7,0,1.3-0.1,1.9-0.3c0.6-0.2,1.1-0.5,1.5-1c0.4-0.5,0.7-1,1-1.6c0.2-0.6,0.3-1.3,0.3-2
		c0-0.7-0.1-1.3-0.3-1.9C112.6,161.2,112.3,160.7,111.9,160.3z M111.4,165.2c-0.1,0.5-0.4,0.9-0.7,1.3c-0.3,0.4-0.6,0.6-1,0.8
		c-0.4,0.2-0.8,0.2-1.3,0.2c-0.7,0-1.2-0.2-1.7-0.5c-0.5-0.3-0.8-0.7-1-1.2c-0.2-0.5-0.3-1.1-0.3-1.7c0-0.7,0.1-1.4,0.4-2
		c0.2-0.6,0.6-1.1,1.1-1.4c0.5-0.3,1.1-0.5,1.7-0.5c0.4,0,0.8,0.1,1.1,0.2c0.4,0.1,0.7,0.3,1,0.6c0.3,0.3,0.5,0.6,0.7,1.1
		c0.1,0.5,0.2,0.9,0.2,1.5C111.6,164.2,111.5,164.7,111.4,165.2z"/>
	<path class="st1" d="M122.5,159.4c0,1.1-0.1,2.2-0.1,3.3c0,0.9-0.1,1.5-0.1,1.8c-0.1,0.5-0.2,0.9-0.3,1.1c-0.2,0.4-0.4,0.7-0.6,1
		c-0.2,0.2-0.5,0.4-0.9,0.6c-0.4,0.2-0.8,0.2-1.3,0.2c-0.5,0-0.9-0.1-1.3-0.3c-0.4-0.2-0.7-0.4-0.8-0.7c-0.2-0.3-0.3-0.7-0.3-1.3
		c0-0.3,0-1.1,0.1-2.4s0.2-2.4,0.2-3.4c-0.3,0-0.6,0-0.8,0l-0.8,0c0,0.3,0,0.6,0,0.8l0,1l-0.2,3c0,0.4,0,0.7-0.1,1
		c0,0.3,0,0.4,0,0.5c0,0.7,0.1,1.3,0.4,1.7s0.7,0.7,1.2,0.9c0.5,0.2,1.1,0.3,1.9,0.3c0.3,0,0.6,0,0.9-0.1c0.3-0.1,0.6-0.1,0.8-0.2
		c0.2-0.1,0.4-0.2,0.6-0.3c0.2-0.1,0.3-0.2,0.5-0.4c0.2-0.1,0.3-0.3,0.4-0.4s0.2-0.4,0.4-0.6l0,1.7c0.3,0,0.5,0,0.7,0
		c0.2,0,0.5,0,0.7,0c0-1.6,0.1-2.9,0.1-4.1c0.1-2.2,0.2-3.8,0.3-4.9c-0.3,0-0.6,0-0.7,0L122.5,159.4z"/>
	<path class="st1" d="M130.7,159.4c-0.3,0-0.6,0-0.8,0.1c-0.3,0.1-0.5,0.2-0.7,0.3c-0.2,0.1-0.4,0.3-0.6,0.5s-0.4,0.5-0.6,0.8
		l0.1-1.5c-0.3,0-0.5,0-0.8,0c-0.2,0-0.4,0-0.7,0l0,0.8c0,2-0.1,4.8-0.3,8.2c0.4,0,0.6,0,0.8,0c0.2,0,0.5,0,0.8,0l0-0.6
		c0-0.9,0-1.7,0-2.5c0-1.1,0.1-1.9,0.1-2.3c0.1-0.4,0.2-0.8,0.3-1c0.1-0.3,0.3-0.6,0.5-0.8c0.2-0.2,0.5-0.4,0.8-0.5
		c0.3-0.1,0.6-0.2,0.9-0.2c0.3,0,0.6,0.1,1,0.2c0-0.5-0.1-0.9-0.1-1.3C131.2,159.4,131,159.4,130.7,159.4z"/>
	<path class="st1" d="M150.6,159.6l-0.7,1.7l-2.5,5.9l-2.1-7.6c-0.3,0-0.6,0-0.8,0c-0.2,0-0.5,0-0.8,0l-2.8,7.6l-1.8-5.2l-0.8-2.4
		c-0.3,0-0.5,0-0.7,0c-0.2,0-0.5,0-0.8,0l2.8,7.7l0.4,1.3c0.3,0,0.6,0,0.9,0c0.2,0,0.5,0,0.8,0c0.1-0.3,0.2-0.6,0.3-0.9l1.9-5.1
		c0.2-0.5,0.3-0.9,0.4-1l0.2-0.5c0.1,0.4,0.2,0.8,0.3,1.2l1.6,6.2c0.3,0,0.6,0,0.9,0c0.2,0,0.5,0,0.8,0l1-2.3l3-6.7l-0.8,0
		C151.2,159.6,151,159.6,150.6,159.6z"/>
	<path class="st1" d="M160,159.8c-0.3-0.2-0.7-0.4-1.2-0.5c-0.5-0.1-1-0.1-1.5-0.1c-0.5,0-1,0-1.5,0.1c-0.5,0.1-1.1,0.2-1.9,0.4
		c-0.1,0.5-0.1,0.9-0.2,1.2c0.4-0.2,0.8-0.3,1.1-0.4c0.3-0.1,0.6-0.2,1-0.2c0.4-0.1,0.8-0.1,1.2-0.1c0.4,0,0.8,0,1.1,0.1
		c0.3,0.1,0.6,0.2,0.7,0.4c0.2,0.2,0.3,0.5,0.3,0.7c0,0.1,0,0.2-0.1,0.4c0,0.1-0.1,0.2-0.2,0.4c-0.1,0.1-0.2,0.2-0.3,0.3
		c-0.1,0.1-0.2,0.1-0.4,0.2c-0.1,0.1-0.3,0.1-0.5,0.2c-0.2,0.1-0.4,0.1-0.7,0.2c-0.8,0.2-1.4,0.4-1.8,0.5c-0.4,0.1-0.7,0.2-1,0.4
		c-0.3,0.1-0.5,0.3-0.8,0.5c-0.3,0.2-0.4,0.4-0.6,0.6c-0.1,0.2-0.2,0.4-0.3,0.6c-0.1,0.2-0.1,0.5-0.1,0.7c0,0.5,0.1,0.9,0.3,1.3
		c0.2,0.4,0.6,0.7,1,0.9c0.5,0.2,1.1,0.3,1.9,0.3c0.2,0,0.5,0,0.8,0c0.3,0,0.6-0.1,1.1-0.2c0.1-0.5,0.2-0.8,0.3-1.1
		c-0.5,0.1-0.8,0.2-1.1,0.3c-0.3,0-0.5,0.1-0.8,0.1c-0.4,0-0.7,0-1-0.1c-0.3-0.1-0.5-0.3-0.7-0.5c-0.2-0.2-0.3-0.5-0.3-0.8
		c0-0.2,0-0.4,0.1-0.6c0.1-0.2,0.2-0.3,0.3-0.5c0.2-0.2,0.4-0.3,0.6-0.4c0.2-0.1,0.6-0.3,1-0.4c0.2-0.1,0.5-0.2,1-0.3
		c0.5-0.1,0.8-0.2,0.9-0.3c0.2-0.1,0.3-0.1,0.4-0.2c0.1-0.1,0.2-0.1,0.4-0.2c0.1-0.1,0.3-0.2,0.5-0.3L159,166l-0.2,2.4
		c0.4,0,0.6,0,0.8,0c0.2,0,0.5,0,0.8,0c0-0.6,0-1.4,0-2.2c0-0.8,0.1-1.7,0.1-2.7c0.1-1,0.1-1.7,0.1-2.1c0-0.3,0-0.6-0.2-0.9
		C160.5,160.3,160.3,160,160,159.8z"/>
	<path class="st1" d="M169.7,159.3c-0.1,0.3-0.2,0.5-0.2,0.7c-0.1,0.1-0.1,0.3-0.2,0.4l-1.9,4.3l-1,2.5c-0.1-0.5-0.3-1-0.4-1.5
		l-1.3-4.1c-0.2-0.7-0.4-1.1-0.4-1.3c-0.1-0.2-0.1-0.5-0.2-1c-0.4,0-0.6,0-0.8,0c-0.1,0-0.4,0-0.9,0l1.4,3.9l1.9,5.4
		c-0.2,0.4-0.3,0.8-0.5,1.1c-0.2,0.3-0.3,0.6-0.5,0.8c-0.2,0.2-0.3,0.4-0.4,0.6c-0.1,0.1-0.3,0.2-0.5,0.3c-0.2,0.1-0.4,0.1-0.7,0.1
		c-0.2,0-0.4,0-0.7-0.1c-0.3-0.1-0.5-0.1-0.8-0.3c0.1,0.3,0.1,0.8,0.2,1.3c0.5,0.1,1,0.2,1.5,0.2c0.3,0,0.6,0,0.9-0.1
		c0.3-0.1,0.5-0.1,0.7-0.2c0.2-0.1,0.3-0.2,0.5-0.3c0.2-0.1,0.3-0.3,0.5-0.5c0.2-0.3,0.4-0.6,0.6-1.1l3.3-7.3
		c0.9-1.9,1.5-3.2,1.7-3.7c-0.4,0-0.7,0-0.8,0C170.3,159.3,170.1,159.3,169.7,159.3z"/>
</g>
</svg>
